<!-- Generated by IcoMoon.io -->
<svg version="1.1" xmlns="http://www.w3.org/2000/svg" width="33" height="32" viewBox="0 0 33 32">
<title>Frame-3</title>
<path fill="none" stroke="#0177f9" stroke-linejoin="round" stroke-linecap="round" stroke-miterlimit="4" stroke-width="1.8824" d="M25.576 9.333h-18.667c-1.473 0-2.667 1.194-2.667 2.667v12c0 1.473 1.194 2.667 2.667 2.667h18.667c1.473 0 2.667-1.194 2.667-2.667v-12c0-1.473-1.194-2.667-2.667-2.667z"></path>
<path fill="none" stroke="#0177f9" stroke-linejoin="round" stroke-linecap="round" stroke-miterlimit="4" stroke-width="1.8824" d="M10.909 9.333v-2.667c0-0.707 0.281-1.386 0.781-1.886s1.178-0.781 1.886-0.781h5.333c0.707 0 1.386 0.281 1.886 0.781s0.781 1.178 0.781 1.886v2.667"></path>
<path fill="none" stroke="#0177f9" stroke-linejoin="round" stroke-linecap="round" stroke-miterlimit="4" stroke-width="1.8824" d="M16.242 16v0.014"></path>
<path fill="none" stroke="#0177f9" stroke-linejoin="round" stroke-linecap="round" stroke-miterlimit="4" stroke-width="1.8824" d="M4.242 17.333c3.722 1.876 7.832 2.853 12 2.853s8.278-0.977 12-2.853"></path>
</svg>
