<!-- Generated by IcoMoon.io -->
<svg version="1.1" xmlns="http://www.w3.org/2000/svg" width="33" height="32" viewBox="0 0 33 32">
<title>Frame-4</title>
<path fill="none" stroke="#0177f9" stroke-linejoin="round" stroke-linecap="round" stroke-miterlimit="4" stroke-width="1.8824" d="M18.909 4v5.333c0 0.354 0.14 0.693 0.39 0.943s0.589 0.39 0.943 0.39h5.333"></path>
<path fill="none" stroke="#0177f9" stroke-linejoin="round" stroke-linecap="round" stroke-miterlimit="4" stroke-width="1.8824" d="M22.909 28h-13.333c-0.707 0-1.386-0.281-1.886-0.781s-0.781-1.178-0.781-1.886v-18.667c0-0.707 0.281-1.386 0.781-1.886s1.178-0.781 1.886-0.781h9.333l6.667 6.667v14.667c0 0.707-0.281 1.386-0.781 1.886s-1.178 0.781-1.886 0.781z"></path>
<path fill="none" stroke="#0177f9" stroke-linejoin="round" stroke-linecap="round" stroke-miterlimit="4" stroke-width="1.8824" d="M12.242 9.333h1.333"></path>
<path fill="none" stroke="#0177f9" stroke-linejoin="round" stroke-linecap="round" stroke-miterlimit="4" stroke-width="1.8824" d="M12.242 17.333h8"></path>
<path fill="none" stroke="#0177f9" stroke-linejoin="round" stroke-linecap="round" stroke-miterlimit="4" stroke-width="1.8824" d="M17.576 22.667h2.667"></path>
</svg>
