<!-- Generated by IcoMoon.io -->
<svg version="1.1" xmlns="http://www.w3.org/2000/svg" width="33" height="32" viewBox="0 0 33 32">
<title>Frame-2</title>
<path fill="none" stroke="#0177f9" stroke-linejoin="round" stroke-linecap="round" stroke-miterlimit="4" stroke-width="1.8824" d="M8.242 5.333h-1.333c-0.707 0-1.386 0.281-1.886 0.781s-0.781 1.178-0.781 1.886v4.667c0 1.945 0.773 3.81 2.148 5.186s3.241 2.148 5.185 2.148 3.81-0.773 5.185-2.148c1.375-1.375 2.148-3.241 2.148-5.186v-4.667c0-0.707-0.281-1.386-0.781-1.886s-1.178-0.781-1.886-0.781h-1.333"></path>
<path fill="none" stroke="#0177f9" stroke-linejoin="round" stroke-linecap="round" stroke-miterlimit="4" stroke-width="1.8824" d="M10.909 20c0 1.051 0.207 2.091 0.609 3.061s0.991 1.853 1.734 2.595 1.625 1.332 2.595 1.734c0.971 0.402 2.011 0.609 3.062 0.609s2.091-0.207 3.061-0.609c0.971-0.402 1.853-0.991 2.595-1.734s1.332-1.625 1.734-2.595c0.402-0.971 0.609-2.011 0.609-3.061v-4"></path>
<path fill="none" stroke="#0177f9" stroke-linejoin="round" stroke-linecap="round" stroke-miterlimit="4" stroke-width="1.8824" d="M14.909 4v2.667"></path>
<path fill="none" stroke="#0177f9" stroke-linejoin="round" stroke-linecap="round" stroke-miterlimit="4" stroke-width="1.8824" d="M8.242 4v2.667"></path>
<path fill="none" stroke="#0177f9" stroke-linejoin="round" stroke-linecap="round" stroke-miterlimit="4" stroke-width="1.8824" d="M26.909 16c1.473 0 2.667-1.194 2.667-2.667s-1.194-2.667-2.667-2.667c-1.473 0-2.667 1.194-2.667 2.667s1.194 2.667 2.667 2.667z"></path>
</svg>
