<svg width="120" height="120" viewBox="0 0 120 120" fill="none" xmlns="http://www.w3.org/2000/svg">
<path d="M82.9289 119.637H36.2573C37.7489 102.585 40.7186 92.2354 54.4303 70.6585C58.067 65.6341 60.9845 59.9193 62.4843 61.942L63.5168 65.2626C65.3327 63.6831 65.6175 61.9438 65.5819 58.2064L73.2229 50.9426L80.6573 62.9797C81.6738 62.2306 81.8638 61.5928 81.8963 60.2817L78.1791 45.7542C82.321 42.0913 84.9018 40.0596 84.3745 36H119.894V83.3183H82.9289V119.637Z" fill="#ABABAB" fill-opacity="0.5"/>
<path opacity="0.5" d="M-7.07284e-06 36.9656L-7.62939e-06 83.6372C17.0517 82.1457 27.4017 79.1759 48.9785 65.4642C54.003 61.8275 59.7178 58.9101 57.6951 57.4103L54.3745 56.3777C55.954 54.5618 57.6933 54.277 61.4307 54.3126L68.6945 46.6717L56.6574 39.2373C57.4064 38.2207 58.0443 38.0308 59.3553 37.9982L73.8829 41.7154C77.5458 37.5735 79.5775 34.9928 83.6371 35.5201L83.6371 0.000114441L36.3188 0.000113877L36.3188 36.9656L-7.07284e-06 36.9656Z" fill="#ABABAB"/>
</svg>
