<svg aria-hidden="true" style="position: absolute; width: 0; height: 0; overflow: hidden;" version="1.1" xmlns="http://www.w3.org/2000/svg" xmlns:xlink="http://www.w3.org/1999/xlink">
    <defs>
        <symbol id="icon-Frame-4" viewBox="0 0 33 32">
            <path  stroke-linejoin="round" stroke-linecap="round" stroke-miterlimit="4" stroke-width="1.8824" d="M18.909 4v5.333c0 0.354 0.14 0.693 0.39 0.943s0.589 0.39 0.943 0.39h5.333"></path>
            <path  stroke-linejoin="round" stroke-linecap="round" stroke-miterlimit="4" stroke-width="1.8824" d="M22.909 28h-13.333c-0.707 0-1.386-0.281-1.886-0.781s-0.781-1.178-0.781-1.886v-18.667c0-0.707 0.281-1.386 0.781-1.886s1.178-0.781 1.886-0.781h9.333l6.667 6.667v14.667c0 0.707-0.281 1.386-0.781 1.886s-1.178 0.781-1.886 0.781z"></path>
            <path  stroke-linejoin="round" stroke-linecap="round" stroke-miterlimit="4" stroke-width="1.8824" d="M12.242 9.333h1.333"></path>
            <path  stroke-linejoin="round" stroke-linecap="round" stroke-miterlimit="4" stroke-width="1.8824" d="M12.242 17.333h8"></path>
            <path  stroke-linejoin="round" stroke-linecap="round" stroke-miterlimit="4" stroke-width="1.8824" d="M17.576 22.667h2.667"></path>
        </symbol>
        <symbol id="icon-Frame-3" viewBox="0 0 33 32">
            <path   stroke-linejoin="round" stroke-linecap="round" stroke-miterlimit="4" stroke-width="1.8824" d="M25.576 9.333h-18.667c-1.473 0-2.667 1.194-2.667 2.667v12c0 1.473 1.194 2.667 2.667 2.667h18.667c1.473 0 2.667-1.194 2.667-2.667v-12c0-1.473-1.194-2.667-2.667-2.667z"></path>
            <path fill="none" stroke="#0177f9" style="stroke: var(--color1, #0177f9)" stroke-linejoin="round" stroke-linecap="round" stroke-miterlimit="4" stroke-width="1.8824" d="M10.909 9.333v-2.667c0-0.707 0.281-1.386 0.781-1.886s1.178-0.781 1.886-0.781h5.333c0.707 0 1.386 0.281 1.886 0.781s0.781 1.178 0.781 1.886v2.667"></path>
            <path fill="none" stroke="#0177f9" style="stroke: var(--color1, #0177f9)" stroke-linejoin="round" stroke-linecap="round" stroke-miterlimit="4" stroke-width="1.8824" d="M16.242 16v0.014"></path>
            <path fill="none" stroke="#0177f9" style="stroke: var(--color1, #0177f9)" stroke-linejoin="round" stroke-linecap="round" stroke-miterlimit="4" stroke-width="1.8824" d="M4.242 17.333c3.722 1.876 7.832 2.853 12 2.853s8.278-0.977 12-2.853"></path>
        </symbol>
        <symbol id="icon-Frame-2" viewBox="0 0 33 32">
            <path  stroke-linejoin="round" stroke-linecap="round" stroke-miterlimit="4" stroke-width="1.8824" d="M8.242 5.333h-1.333c-0.707 0-1.386 0.281-1.886 0.781s-0.781 1.178-0.781 1.886v4.667c0 1.945 0.773 3.81 2.148 5.186s3.241 2.148 5.185 2.148 3.81-0.773 5.185-2.148c1.375-1.375 2.148-3.241 2.148-5.186v-4.667c0-0.707-0.281-1.386-0.781-1.886s-1.178-0.781-1.886-0.781h-1.333"></path>
            <path  stroke-linejoin="round" stroke-linecap="round" stroke-miterlimit="4" stroke-width="1.8824" d="M10.909 20c0 1.051 0.207 2.091 0.609 3.061s0.991 1.853 1.734 2.595 1.625 1.332 2.595 1.734c0.971 0.402 2.011 0.609 3.062 0.609s2.091-0.207 3.061-0.609c0.971-0.402 1.853-0.991 2.595-1.734s1.332-1.625 1.734-2.595c0.402-0.971 0.609-2.011 0.609-3.061v-4"></path>
            <path  stroke-linejoin="round" stroke-linecap="round" stroke-miterlimit="4" stroke-width="1.8824" d="M14.909 4v2.667"></path>
            <path  stroke-linejoin="round" stroke-linecap="round" stroke-miterlimit="4" stroke-width="1.8824" d="M8.242 4v2.667"></path>
            <path stroke-linejoin="round" stroke-linecap="round" stroke-miterlimit="4" stroke-width="1.8824" d="M26.909 16c1.473 0 2.667-1.194 2.667-2.667s-1.194-2.667-2.667-2.667c-1.473 0-2.667 1.194-2.667 2.667s1.194 2.667 2.667 2.667z"></path>
        </symbol>
        <symbol id="icon-Frame-1" viewBox="0 0 33 32">
            <path  stroke-linejoin="round" stroke-linecap="round" stroke-miterlimit="4" stroke-width="1.8824" d="M4.242 28h24"></path>
            <path  stroke-linejoin="round" stroke-linecap="round" stroke-miterlimit="4" stroke-width="1.8824" d="M6.909 28v-21.333c0-0.707 0.281-1.386 0.781-1.886s1.178-0.781 1.886-0.781h13.333c0.707 0 1.386 0.281 1.886 0.781s0.781 1.178 0.781 1.886v21.333"></path>
            <path stroke-linejoin="round" stroke-linecap="round" stroke-miterlimit="4" stroke-width="1.8824" d="M12.242 28v-5.333c0-0.707 0.281-1.386 0.781-1.886s1.178-0.781 1.886-0.781h2.667c0.707 0 1.386 0.281 1.886 0.781s0.781 1.178 0.781 1.886v5.333"></path>
            <path  stroke-linejoin="round" stroke-linecap="round" stroke-miterlimit="4" stroke-width="1.8824" d="M13.576 12h5.333"></path>
            <path  stroke-linejoin="round" stroke-linecap="round" stroke-miterlimit="4" stroke-width="1.8824" d="M16.242 9.333v5.333"></path>
        </symbol>
        <symbol id="icon-Frame" viewBox="0 0 33 32">
            <path   stroke-linejoin="round" stroke-linecap="round" stroke-miterlimit="4" stroke-width="1.7778" d="M16.229 20c4.418 0 8-3.582 8-8s-3.582-8-8-8c-4.418 0-8 3.582-8 8s3.582 8 8 8z"></path>
            <path   stroke-linejoin="round" stroke-linecap="round" stroke-miterlimit="4" stroke-width="1.7778" d="M16.231 20.004l4.533 7.852 2.131-4.309 4.797 0.309-4.533-7.852"></path>
            <path   stroke-linejoin="round" stroke-linecap="round" stroke-miterlimit="4" stroke-width="1.7778" d="M9.298 16.004l-4.533 7.852 4.797-0.309 2.131 4.309 4.533-7.852"></path>
        </symbol>
        <symbol id="icon-Frame-5" viewBox="0 0 34 32">
            <path stroke-linejoin="round" stroke-linecap="round" stroke-miterlimit="4" stroke-width="3.3846" d="M24.707 11.487l-8.023 8.023-8.023-8.023"></path>
        </symbol>
        <symbol id="icon-cheveron-down" viewBox="0 0 20 20">
            <path d="M9.293 12.95l0.707 0.707 5.657-5.657-1.414-1.414-4.243 4.242-4.243-4.242-1.414 1.414z"></path>
        </symbol>
        <symbol id="icon-blocknot" viewBox="0 0 32 32">
            <path fill="none" stroke="#0177f9" style="stroke: var(--color1, #0177f9)" stroke-linejoin="round" stroke-linecap="round" stroke-miterlimit="4" stroke-width="2.1818" d="M24 6.667h-16c-1.473 0-2.667 1.194-2.667 2.667v16c0 1.473 1.194 2.667 2.667 2.667h16c1.473 0 2.667-1.194 2.667-2.667v-16c0-1.473-1.194-2.667-2.667-2.667z"></path>
            <path fill="none" stroke="#0177f9" style="stroke: var(--color1, #0177f9)" stroke-linejoin="round" stroke-linecap="round" stroke-miterlimit="4" stroke-width="2.1818" d="M21.333 4v5.333"></path>
            <path fill="none" stroke="#0177f9" style="stroke: var(--color1, #0177f9)" stroke-linejoin="round" stroke-linecap="round" stroke-miterlimit="4" stroke-width="2.1818" d="M10.667 4v5.333"></path>
            <path fill="none" stroke="#0177f9" style="stroke: var(--color1, #0177f9)" stroke-linejoin="round" stroke-linecap="round" stroke-miterlimit="4" stroke-width="2.1818" d="M4.364 16h21.333"></path>
        </symbol>
        <symbol id="icon-clock" viewBox="0 0 32 32">
            <path fill="none" stroke="#0177f9" style="stroke: var(--color1, #0177f9)" stroke-linejoin="round" stroke-linecap="round" stroke-miterlimit="4" stroke-width="2.1818" d="M16 28c6.627 0 12-5.373 12-12s-5.373-12-12-12c-6.627 0-12 5.373-12 12s5.373 12 12 12z"></path>
            <path fill="none" stroke="#0177f9" style="stroke: var(--color1, #0177f9)" stroke-linejoin="round" stroke-linecap="round" stroke-miterlimit="4" stroke-width="2.1818" d="M16 9.333v6.667l4 4"></path>
        </symbol>
    </defs>
</svg>