<svg aria-hidden="true" style="position: absolute; width: 0; height: 0; overflow: hidden;" version="1.1" xmlns="http://www.w3.org/2000/svg" xmlns:xlink="http://www.w3.org/1999/xlink">
    <defs>
        <symbol id="icon-Frame-4" viewBox="0 0 33 32">
            <path  stroke-linejoin="round" stroke-linecap="round" stroke-miterlimit="4" stroke-width="1.8824" d="M18.909 4v5.333c0 0.354 0.14 0.693 0.39 0.943s0.589 0.39 0.943 0.39h5.333"></path>
            <path  stroke-linejoin="round" stroke-linecap="round" stroke-miterlimit="4" stroke-width="1.8824" d="M22.909 28h-13.333c-0.707 0-1.386-0.281-1.886-0.781s-0.781-1.178-0.781-1.886v-18.667c0-0.707 0.281-1.386 0.781-1.886s1.178-0.781 1.886-0.781h9.333l6.667 6.667v14.667c0 0.707-0.281 1.386-0.781 1.886s-1.178 0.781-1.886 0.781z"></path>
            <path  stroke-linejoin="round" stroke-linecap="round" stroke-miterlimit="4" stroke-width="1.8824" d="M12.242 9.333h1.333"></path>
            <path  stroke-linejoin="round" stroke-linecap="round" stroke-miterlimit="4" stroke-width="1.8824" d="M12.242 17.333h8"></path>
            <path  stroke-linejoin="round" stroke-linecap="round" stroke-miterlimit="4" stroke-width="1.8824" d="M17.576 22.667h2.667"></path>
        </symbol>
        <symbol id="icon-Frame-3" viewBox="0 0 33 32">
            <path   stroke-linejoin="round" stroke-linecap="round" stroke-miterlimit="4" stroke-width="1.8824" d="M25.576 9.333h-18.667c-1.473 0-2.667 1.194-2.667 2.667v12c0 1.473 1.194 2.667 2.667 2.667h18.667c1.473 0 2.667-1.194 2.667-2.667v-12c0-1.473-1.194-2.667-2.667-2.667z"></path>
            <path fill="none" stroke="#0177f9" style="stroke: var(--color1, #0177f9)" stroke-linejoin="round" stroke-linecap="round" stroke-miterlimit="4" stroke-width="1.8824" d="M10.909 9.333v-2.667c0-0.707 0.281-1.386 0.781-1.886s1.178-0.781 1.886-0.781h5.333c0.707 0 1.386 0.281 1.886 0.781s0.781 1.178 0.781 1.886v2.667"></path>
            <path fill="none" stroke="#0177f9" style="stroke: var(--color1, #0177f9)" stroke-linejoin="round" stroke-linecap="round" stroke-miterlimit="4" stroke-width="1.8824" d="M16.242 16v0.014"></path>
            <path fill="none" stroke="#0177f9" style="stroke: var(--color1, #0177f9)" stroke-linejoin="round" stroke-linecap="round" stroke-miterlimit="4" stroke-width="1.8824" d="M4.242 17.333c3.722 1.876 7.832 2.853 12 2.853s8.278-0.977 12-2.853"></path>
        </symbol>
        <symbol id="icon-Frame-2" viewBox="0 0 33 32">
            <path  stroke-linejoin="round" stroke-linecap="round" stroke-miterlimit="4" stroke-width="1.8824" d="M8.242 5.333h-1.333c-0.707 0-1.386 0.281-1.886 0.781s-0.781 1.178-0.781 1.886v4.667c0 1.945 0.773 3.81 2.148 5.186s3.241 2.148 5.185 2.148 3.81-0.773 5.185-2.148c1.375-1.375 2.148-3.241 2.148-5.186v-4.667c0-0.707-0.281-1.386-0.781-1.886s-1.178-0.781-1.886-0.781h-1.333"></path>
            <path  stroke-linejoin="round" stroke-linecap="round" stroke-miterlimit="4" stroke-width="1.8824" d="M10.909 20c0 1.051 0.207 2.091 0.609 3.061s0.991 1.853 1.734 2.595 1.625 1.332 2.595 1.734c0.971 0.402 2.011 0.609 3.062 0.609s2.091-0.207 3.061-0.609c0.971-0.402 1.853-0.991 2.595-1.734s1.332-1.625 1.734-2.595c0.402-0.971 0.609-2.011 0.609-3.061v-4"></path>
            <path  stroke-linejoin="round" stroke-linecap="round" stroke-miterlimit="4" stroke-width="1.8824" d="M14.909 4v2.667"></path>
            <path  stroke-linejoin="round" stroke-linecap="round" stroke-miterlimit="4" stroke-width="1.8824" d="M8.242 4v2.667"></path>
            <path stroke-linejoin="round" stroke-linecap="round" stroke-miterlimit="4" stroke-width="1.8824" d="M26.909 16c1.473 0 2.667-1.194 2.667-2.667s-1.194-2.667-2.667-2.667c-1.473 0-2.667 1.194-2.667 2.667s1.194 2.667 2.667 2.667z"></path>
        </symbol>
        <symbol id="icon-Frame-1" viewBox="0 0 33 32">
            <path  stroke-linejoin="round" stroke-linecap="round" stroke-miterlimit="4" stroke-width="1.8824" d="M4.242 28h24"></path>
            <path  stroke-linejoin="round" stroke-linecap="round" stroke-miterlimit="4" stroke-width="1.8824" d="M6.909 28v-21.333c0-0.707 0.281-1.386 0.781-1.886s1.178-0.781 1.886-0.781h13.333c0.707 0 1.386 0.281 1.886 0.781s0.781 1.178 0.781 1.886v21.333"></path>
            <path stroke-linejoin="round" stroke-linecap="round" stroke-miterlimit="4" stroke-width="1.8824" d="M12.242 28v-5.333c0-0.707 0.281-1.386 0.781-1.886s1.178-0.781 1.886-0.781h2.667c0.707 0 1.386 0.281 1.886 0.781s0.781 1.178 0.781 1.886v5.333"></path>
            <path  stroke-linejoin="round" stroke-linecap="round" stroke-miterlimit="4" stroke-width="1.8824" d="M13.576 12h5.333"></path>
            <path  stroke-linejoin="round" stroke-linecap="round" stroke-miterlimit="4" stroke-width="1.8824" d="M16.242 9.333v5.333"></path>
        </symbol>
        <symbol id="icon-Frame" viewBox="0 0 33 32">
            <path   stroke-linejoin="round" stroke-linecap="round" stroke-miterlimit="4" stroke-width="1.7778" d="M16.229 20c4.418 0 8-3.582 8-8s-3.582-8-8-8c-4.418 0-8 3.582-8 8s3.582 8 8 8z"></path>
            <path   stroke-linejoin="round" stroke-linecap="round" stroke-miterlimit="4" stroke-width="1.7778" d="M16.231 20.004l4.533 7.852 2.131-4.309 4.797 0.309-4.533-7.852"></path>
            <path   stroke-linejoin="round" stroke-linecap="round" stroke-miterlimit="4" stroke-width="1.7778" d="M9.298 16.004l-4.533 7.852 4.797-0.309 2.131 4.309 4.533-7.852"></path>
        </symbol>
        <symbol id="icon-Frame-5" viewBox="0 0 34 32">
            <path stroke-linejoin="round" stroke-linecap="round" stroke-miterlimit="4" stroke-width="3.3846" d="M24.707 11.487l-8.023 8.023-8.023-8.023"></path>
        </symbol>
        <symbol id="icon-cheveron-down" viewBox="0 0 20 20">
            <path d="M9.293 12.95l0.707 0.707 5.657-5.657-1.414-1.414-4.243 4.242-4.243-4.242-1.414 1.414z"></path>
        </symbol>
        <symbol id="icon-blocknot" viewBox="0 0 32 32">
            <path fill="none" stroke="#0177f9" style="stroke: var(--color1, #0177f9)" stroke-linejoin="round" stroke-linecap="round" stroke-miterlimit="4" stroke-width="2.1818" d="M24 6.667h-16c-1.473 0-2.667 1.194-2.667 2.667v16c0 1.473 1.194 2.667 2.667 2.667h16c1.473 0 2.667-1.194 2.667-2.667v-16c0-1.473-1.194-2.667-2.667-2.667z"></path>
            <path fill="none" stroke="#0177f9" style="stroke: var(--color1, #0177f9)" stroke-linejoin="round" stroke-linecap="round" stroke-miterlimit="4" stroke-width="2.1818" d="M21.333 4v5.333"></path>
            <path fill="none" stroke="#0177f9" style="stroke: var(--color1, #0177f9)" stroke-linejoin="round" stroke-linecap="round" stroke-miterlimit="4" stroke-width="2.1818" d="M10.667 4v5.333"></path>
            <path fill="none" stroke="#0177f9" style="stroke: var(--color1, #0177f9)" stroke-linejoin="round" stroke-linecap="round" stroke-miterlimit="4" stroke-width="2.1818" d="M4.364 16h21.333"></path>
        </symbol>
        <symbol id="icon-clock" viewBox="0 0 32 32">
            <path fill="none" stroke="#0177f9" style="stroke: var(--color1, #0177f9)" stroke-linejoin="round" stroke-linecap="round" stroke-miterlimit="4" stroke-width="2.1818" d="M16 28c6.627 0 12-5.373 12-12s-5.373-12-12-12c-6.627 0-12 5.373-12 12s5.373 12 12 12z"></path>
            <path fill="none" stroke="#0177f9" style="stroke: var(--color1, #0177f9)" stroke-linejoin="round" stroke-linecap="round" stroke-miterlimit="4" stroke-width="2.1818" d="M16 9.333v6.667l4 4"></path>
        </symbol>
        <symbol id="icon-arrow-left" viewBox="0 0 32 32">
            <path d="M12.586 27.414l-10-10c-0.781-0.781-0.781-2.047 0-2.828l10-10c0.781-0.781 2.047-0.781 2.828 0s0.781 2.047 0 2.828l-6.586 6.586h19.172c1.105 0 2 0.895 2 2s-0.895 2-2 2h-19.172l6.586 6.586c0.39 0.39 0.586 0.902 0.586 1.414s-0.195 1.024-0.586 1.414c-0.781 0.781-2.047 0.781-2.828 0z"></path>
        </symbol>
        <symbol id="icon-arrow-right" viewBox="0 0 32 32">
            <path d="M19.414 27.414l10-10c0.781-0.781 0.781-2.047 0-2.828l-10-10c-0.781-0.781-2.047-0.781-2.828 0s-0.781 2.047 0 2.828l6.586 6.586h-19.172c-1.105 0-2 0.895-2 2s0.895 2 2 2h19.172l-6.586 6.586c-0.39 0.39-0.586 0.902-0.586 1.414s0.195 1.024 0.586 1.414c0.781 0.781 2.047 0.781 2.828 0z"></path>
        </symbol>
        <symbol id="icon-Frame-6" viewBox="0 0 32 32">
            <path fill="none" stroke="#0177f9" style="stroke: var(--color1, #0177f9)" stroke-linejoin="round" stroke-linecap="round" stroke-miterlimit="4" stroke-width="2.6667" d="M16 18.667c2.209 0 4-1.791 4-4s-1.791-4-4-4-4 1.791-4 4c0 2.209 1.791 4 4 4z"></path>
            <path fill="none" stroke="#0177f9" style="stroke: var(--color1, #0177f9)" stroke-linejoin="round" stroke-linecap="round" stroke-miterlimit="4" stroke-width="2.6667" d="M23.543 22.209l-5.657 5.657c-0.5 0.499-1.178 0.78-1.885 0.78s-1.385-0.281-1.885-0.78l-5.659-5.657c-1.492-1.492-2.508-3.392-2.919-5.462s-0.2-4.214 0.607-6.163 2.175-3.615 3.929-4.787c1.754-1.172 3.816-1.798 5.926-1.798s4.172 0.626 5.926 1.798c1.754 1.172 3.121 2.838 3.929 4.787s1.019 4.094 0.607 6.163c-0.411 2.069-1.427 3.97-2.919 5.462v0z"></path>
        </symbol>
        <symbol id="icon-email" viewBox="0 0 34 32">
            <path  d="M32.18 4.571h-29.714l14.857 12.238 15.025-12.203c-0.055-0.016-0.111-0.028-0.168-0.034z"></path>
            <path  d="M18.044 19.172c-0.421 0.345-1.027 0.345-1.448 0l-15.273-12.583v19.696c0 0.631 0.512 1.143 1.143 1.143h29.714c0.631 0 1.143-0.512 1.143-1.143v-19.527l-15.279 12.414z"></path>
        </symbol>
        <symbol id="icon-telephone" viewBox="0 0 34 32">
            <path  d="M25.651 21.17c-1.045-1.032-2.351-1.032-3.389 0-0.792 0.786-1.585 1.572-2.364 2.371-0.213 0.22-0.393 0.266-0.653 0.12-0.513-0.28-1.059-0.506-1.552-0.812-2.297-1.445-4.222-3.303-5.926-5.394-0.846-1.039-1.598-2.151-2.124-3.403-0.107-0.253-0.087-0.419 0.12-0.626 0.792-0.766 1.565-1.552 2.344-2.337 1.085-1.092 1.085-2.371-0.007-3.469-0.619-0.626-1.239-1.239-1.858-1.864-0.639-0.639-1.272-1.285-1.918-1.918-1.045-1.019-2.351-1.019-3.389 0.007-0.799 0.786-1.565 1.591-2.377 2.364-0.752 0.713-1.132 1.585-1.212 2.604-0.127 1.658 0.28 3.223 0.852 4.748 1.172 3.156 2.957 5.96 5.121 8.53 2.923 3.476 6.412 6.226 10.494 8.21 1.838 0.892 3.742 1.578 5.813 1.691 1.425 0.080 2.664-0.28 3.656-1.392 0.679-0.759 1.445-1.452 2.164-2.177 1.065-1.079 1.072-2.384 0.013-3.449-1.265-1.272-2.537-2.537-3.809-3.802z"></path>
            <path  d="M24.38 15.862l2.457-0.419c-0.386-2.257-1.452-4.302-3.070-5.926-1.711-1.711-3.876-2.79-6.259-3.123l-0.346 2.47c1.844 0.26 3.523 1.092 4.848 2.417 1.252 1.252 2.071 2.837 2.371 4.581z"></path>
            <path  d="M28.222 5.181c-2.837-2.837-6.426-4.628-10.388-5.181l-0.346 2.47c3.423 0.479 6.526 2.031 8.976 4.475 2.324 2.324 3.849 5.261 4.402 8.49l2.457-0.419c-0.646-3.742-2.41-7.138-5.101-9.835z"></path>
        </symbol>
        <symbol id="icon-facebook" viewBox="0 0 32 32">
            <path  d="M21.328 5.312h2.923v-5.088c-1.232-0.143-2.66-0.224-4.107-0.224-0.052 0-0.104 0-0.157 0l0.008-0c-4.213 0-7.099 2.65-7.099 7.52v4.48h-4.646v5.688h4.646v14.312h5.699v-14.31h4.459l0.709-5.688h-5.17v-3.922c0-1.643 0.443-2.768 2.734-2.768z"></path>
        </symbol>
        <symbol id="icon-instagram" viewBox="0 0 32 32">
            <path  d="M31.968 9.408c-0.074-1.701-0.349-2.869-0.742-3.882-0.424-1.111-1.054-2.059-1.85-2.837l-0.001-0.001c-0.78-0.792-1.724-1.419-2.778-1.827l-0.054-0.018c-1.019-0.394-2.181-0.667-3.882-0.742-1.712-0.082-2.256-0.101-6.602-0.101-4.344 0-4.888 0.019-6.595 0.094-1.699 0.074-2.869 0.349-3.88 0.742-1.112 0.424-2.060 1.054-2.839 1.85l-0.001 0.001c-0.791 0.78-1.418 1.724-1.825 2.778l-0.018 0.054c-0.395 1.019-0.669 2.181-0.744 3.882-0.082 1.712-0.101 2.256-0.101 6.602 0 4.344 0.019 4.888 0.094 6.595 0.075 1.701 0.35 2.869 0.744 3.882 0.426 1.11 1.055 2.057 1.849 2.837l0.001 0.001c0.8 0.813 1.77 1.443 2.832 1.843 1.019 0.395 2.182 0.67 3.882 0.744 1.707 0.075 2.251 0.094 6.595 0.094 4.346 0 4.89-0.019 6.595-0.094 1.701-0.074 2.869-0.349 3.882-0.742 2.157-0.85 3.833-2.526 4.664-4.628l0.019-0.055c0.394-1.019 0.669-2.182 0.744-3.882 0.075-1.707 0.093-2.251 0.093-6.595s-0.006-4.888-0.080-6.595zM29.088 22.474c-0.070 1.563-0.333 2.406-0.55 2.97-0.552 1.399-1.64 2.486-3.004 3.024l-0.036 0.012c-0.56 0.219-1.411 0.482-2.968 0.55-1.688 0.075-2.194 0.094-6.464 0.094-4.269 0-4.782-0.019-6.464-0.094-1.563-0.069-2.406-0.331-2.97-0.55-0.721-0.269-1.334-0.676-1.836-1.192l-0.001-0.001c-0.517-0.503-0.924-1.117-1.184-1.803l-0.011-0.034c-0.218-0.563-0.48-1.413-0.549-2.97-0.075-1.688-0.094-2.195-0.094-6.464 0-4.27 0.019-4.784 0.094-6.464 0.069-1.563 0.331-2.406 0.549-2.97 0.269-0.722 0.678-1.337 1.198-1.837l0.002-0.002c0.504-0.517 1.119-0.923 1.806-1.182l0.034-0.011c0.56-0.219 1.411-0.48 2.968-0.55 1.688-0.074 2.195-0.093 6.464-0.093 4.275 0 4.782 0.019 6.464 0.093 1.563 0.069 2.406 0.331 2.97 0.55 0.693 0.256 1.325 0.662 1.837 1.194 0.531 0.52 0.938 1.144 1.195 1.84 0.218 0.56 0.48 1.411 0.549 2.968 0.075 1.688 0.094 2.194 0.094 6.464 0 4.269-0.019 4.768-0.094 6.458z"></path>
            <path d="M16.059 7.782c-4.539 0.002-8.218 3.682-8.219 8.221v0c0.091 4.471 3.737 8.060 8.221 8.060s8.13-3.589 8.221-8.052l0-0.009c-0.001-4.54-3.681-8.22-8.221-8.221h-0zM16.059 21.334c-2.945-0-5.332-2.388-5.332-5.333s2.388-5.333 5.333-5.333c0 0 0.001 0 0.001 0h-0c2.946 0 5.334 2.388 5.334 5.334s-2.388 5.334-5.334 5.334v0zM26.525 7.458c0 1.060-0.86 1.92-1.92 1.92s-1.92-0.86-1.92-1.92v0c0-1.060 0.86-1.92 1.92-1.92s1.92 0.86 1.92 1.92v0z"></path>
        </symbol>
        <symbol id="icon-linkedin" viewBox="0 0 32 32">
            <path  d="M31.992 32h0.008v-11.738c0-5.741-1.235-10.163-7.947-10.163-3.227 0-5.392 1.77-6.277 3.45h-0.093v-2.914h-6.365v21.363h6.627v-10.578c0-2.786 0.528-5.48 3.978-5.48 3.398 0 3.45 3.179 3.45 5.658v10.402h6.619zM0.528 10.635h6.635v21.365h-6.635v-21.365zM3.843 0c-2.123 0-3.843 1.721-3.843 3.843v0c0 2.12 1.722 3.878 3.843 3.878 2.12 0 3.842-1.757 3.842-3.878s-1.72-3.841-3.841-3.843h-0z"></path>
        </symbol>
        <symbol id="icon-youtube" viewBox="0 0 32 32">
            <path d="M31.327 8.273c-0.386-1.353-1.431-2.398-2.756-2.777l-0.028-0.007c-2.493-0.668-12.528-0.668-12.528-0.668s-10.009-0.013-12.528 0.668c-1.353 0.386-2.398 1.431-2.777 2.756l-0.007 0.028c-0.443 2.281-0.696 4.903-0.696 7.585 0 0.054 0 0.109 0 0.163l-0-0.008c-0 0.037-0 0.082-0 0.126 0 2.682 0.253 5.304 0.737 7.845l-0.041-0.26c0.386 1.353 1.431 2.398 2.756 2.777l0.028 0.007c2.491 0.669 12.528 0.669 12.528 0.669s10.008 0 12.528-0.669c1.353-0.386 2.398-1.431 2.777-2.756l0.007-0.028c0.425-2.233 0.668-4.803 0.668-7.429 0-0.099-0-0.198-0.001-0.297l0 0.015c0.001-0.092 0.001-0.201 0.001-0.31 0-2.626-0.243-5.196-0.708-7.687l0.040 0.258zM12.812 20.801v-9.591l8.352 4.803z"></path>
            </symbol>
    </defs>
</svg>